<mxfile host="app.diagrams.net" agent="Mozilla/5.0 (Windows NT 10.0; Win64; x64; rv:143.0) Gecko/20100101 Firefox/143.0" version="28.2.4">
  <diagram name="PÃ¡gina-1" id="9kMwiWJVpVFOU7eIDCeR">
    <mxGraphModel dx="1281" dy="597" grid="0" gridSize="10" guides="0" tooltips="1" connect="1" arrows="1" fold="1" page="1" pageScale="1" pageWidth="1654" pageHeight="1169" background="light-dark(#e3e3d9, #121212)" math="0" shadow="0">
      <root>
        <mxCell id="0" />
        <mxCell id="1" parent="0" />
        <mxCell id="zRIx5lJEsnqqh7HefP3U-1" value="SUCURSAL" style="rounded=0;whiteSpace=wrap;html=1;" parent="1" vertex="1">
          <mxGeometry x="605" y="400" width="120" height="60" as="geometry" />
        </mxCell>
        <mxCell id="zRIx5lJEsnqqh7HefP3U-2" value="EMPLEADO" style="rounded=0;whiteSpace=wrap;html=1;" parent="1" vertex="1">
          <mxGeometry x="180" y="400" width="120" height="60" as="geometry" />
        </mxCell>
        <mxCell id="zRIx5lJEsnqqh7HefP3U-3" value="PRODUCTO" style="rounded=0;whiteSpace=wrap;html=1;" parent="1" vertex="1">
          <mxGeometry x="608" y="736" width="120" height="60" as="geometry" />
        </mxCell>
        <mxCell id="zRIx5lJEsnqqh7HefP3U-4" value="FABRICA" style="rounded=0;whiteSpace=wrap;html=1;" parent="1" vertex="1">
          <mxGeometry x="1002" y="737" width="120" height="60" as="geometry" />
        </mxCell>
        <mxCell id="zRIx5lJEsnqqh7HefP3U-6" value="CLIENTE" style="rounded=0;whiteSpace=wrap;html=1;" parent="1" vertex="1">
          <mxGeometry x="605" y="130" width="120" height="60" as="geometry" />
        </mxCell>
        <mxCell id="KTyzmpf07YUTBIpUTj2X-12" value="&lt;u&gt;numExp&lt;/u&gt;" style="ellipse;whiteSpace=wrap;html=1;" parent="1" vertex="1">
          <mxGeometry x="80" y="210" width="70" height="50" as="geometry" />
        </mxCell>
        <mxCell id="KTyzmpf07YUTBIpUTj2X-13" value="Domicilio" style="ellipse;whiteSpace=wrap;html=1;" parent="1" vertex="1">
          <mxGeometry x="60" y="420" width="70" height="50" as="geometry" />
        </mxCell>
        <mxCell id="KTyzmpf07YUTBIpUTj2X-14" value="DNI" style="ellipse;whiteSpace=wrap;html=1;" parent="1" vertex="1">
          <mxGeometry x="50" y="280" width="70" height="50" as="geometry" />
        </mxCell>
        <mxCell id="KTyzmpf07YUTBIpUTj2X-15" value="" style="endArrow=none;html=1;rounded=0;exitX=0.5;exitY=1;exitDx=0;exitDy=0;" parent="1" source="KTyzmpf07YUTBIpUTj2X-12" edge="1">
          <mxGeometry width="50" height="50" relative="1" as="geometry">
            <mxPoint x="980" y="80" as="sourcePoint" />
            <mxPoint x="180" y="430" as="targetPoint" />
          </mxGeometry>
        </mxCell>
        <mxCell id="KTyzmpf07YUTBIpUTj2X-16" value="" style="endArrow=none;html=1;rounded=0;exitX=0.5;exitY=1;exitDx=0;exitDy=0;entryX=0;entryY=0.5;entryDx=0;entryDy=0;" parent="1" source="KTyzmpf07YUTBIpUTj2X-14" target="zRIx5lJEsnqqh7HefP3U-2" edge="1">
          <mxGeometry width="50" height="50" relative="1" as="geometry">
            <mxPoint x="1005" y="180" as="sourcePoint" />
            <mxPoint x="1030" y="220" as="targetPoint" />
          </mxGeometry>
        </mxCell>
        <mxCell id="KTyzmpf07YUTBIpUTj2X-17" value="" style="endArrow=none;html=1;rounded=0;exitX=0.5;exitY=1;exitDx=0;exitDy=0;entryX=0;entryY=0.5;entryDx=0;entryDy=0;" parent="1" source="KTyzmpf07YUTBIpUTj2X-18" target="zRIx5lJEsnqqh7HefP3U-2" edge="1">
          <mxGeometry width="50" height="50" relative="1" as="geometry">
            <mxPoint x="887.5" y="180" as="sourcePoint" />
            <mxPoint x="1030" y="220" as="targetPoint" />
          </mxGeometry>
        </mxCell>
        <mxCell id="KTyzmpf07YUTBIpUTj2X-18" value="Nombre" style="ellipse;whiteSpace=wrap;html=1;" parent="1" vertex="1">
          <mxGeometry x="30" y="355" width="70" height="50" as="geometry" />
        </mxCell>
        <mxCell id="KTyzmpf07YUTBIpUTj2X-20" value="TLF" style="ellipse;whiteSpace=wrap;html=1;" parent="1" vertex="1">
          <mxGeometry x="110" y="470" width="70" height="50" as="geometry" />
        </mxCell>
        <mxCell id="KTyzmpf07YUTBIpUTj2X-25" value="&lt;div&gt;CVV&lt;/div&gt;" style="ellipse;whiteSpace=wrap;html=1;" parent="1" vertex="1">
          <mxGeometry x="1180" y="40" width="70" height="50" as="geometry" />
        </mxCell>
        <mxCell id="KTyzmpf07YUTBIpUTj2X-29" value="Vto" style="ellipse;whiteSpace=wrap;html=1;" parent="1" vertex="1">
          <mxGeometry x="1260" y="40" width="70" height="50" as="geometry" />
        </mxCell>
        <mxCell id="KTyzmpf07YUTBIpUTj2X-30" value="&lt;u&gt;COD&lt;/u&gt;" style="ellipse;whiteSpace=wrap;html=1;" parent="1" vertex="1">
          <mxGeometry x="489" y="857" width="70" height="50" as="geometry" />
        </mxCell>
        <mxCell id="KTyzmpf07YUTBIpUTj2X-31" value="Descrip" style="ellipse;whiteSpace=wrap;html=1;" parent="1" vertex="1">
          <mxGeometry x="579" y="857" width="70" height="50" as="geometry" />
        </mxCell>
        <mxCell id="KTyzmpf07YUTBIpUTj2X-32" value="Color" style="ellipse;whiteSpace=wrap;html=1;" parent="1" vertex="1">
          <mxGeometry x="659" y="857" width="70" height="50" as="geometry" />
        </mxCell>
        <mxCell id="KTyzmpf07YUTBIpUTj2X-33" value="CostoFijo" style="ellipse;whiteSpace=wrap;html=1;" parent="1" vertex="1">
          <mxGeometry x="739" y="857" width="70" height="50" as="geometry" />
        </mxCell>
        <mxCell id="KTyzmpf07YUTBIpUTj2X-34" value="&lt;u&gt;CUIT&lt;/u&gt;" style="ellipse;whiteSpace=wrap;html=1;" parent="1" vertex="1">
          <mxGeometry x="1165" y="567" width="70" height="50" as="geometry" />
        </mxCell>
        <mxCell id="KTyzmpf07YUTBIpUTj2X-35" value="CantidadEmpleados" style="ellipse;whiteSpace=wrap;html=1;" parent="1" vertex="1">
          <mxGeometry x="1202" y="777" width="130" height="50" as="geometry" />
        </mxCell>
        <mxCell id="KTyzmpf07YUTBIpUTj2X-36" value="PaisOrigen" style="ellipse;whiteSpace=wrap;html=1;" parent="1" vertex="1">
          <mxGeometry x="1215" y="707" width="70" height="50" as="geometry" />
        </mxCell>
        <mxCell id="KTyzmpf07YUTBIpUTj2X-37" value="Nombre" style="ellipse;whiteSpace=wrap;html=1;" parent="1" vertex="1">
          <mxGeometry x="1192" y="637" width="70" height="50" as="geometry" />
        </mxCell>
        <mxCell id="KTyzmpf07YUTBIpUTj2X-38" value="NombreGerente" style="ellipse;whiteSpace=wrap;html=1;" parent="1" vertex="1">
          <mxGeometry x="1165" y="847" width="120" height="50" as="geometry" />
        </mxCell>
        <mxCell id="KTyzmpf07YUTBIpUTj2X-40" value="&lt;u&gt;ID&lt;/u&gt;" style="ellipse;whiteSpace=wrap;html=1;" parent="1" vertex="1">
          <mxGeometry x="800" y="320" width="70" height="50" as="geometry" />
        </mxCell>
        <mxCell id="KTyzmpf07YUTBIpUTj2X-43" value="Domicilio" style="ellipse;whiteSpace=wrap;html=1;" parent="1" vertex="1">
          <mxGeometry x="800" y="390" width="70" height="50" as="geometry" />
        </mxCell>
        <mxCell id="KTyzmpf07YUTBIpUTj2X-44" value="Ciudad" style="ellipse;whiteSpace=wrap;html=1;" parent="1" vertex="1">
          <mxGeometry x="800" y="460" width="70" height="50" as="geometry" />
        </mxCell>
        <mxCell id="KTyzmpf07YUTBIpUTj2X-45" value="&lt;u&gt;COD&lt;/u&gt;" style="ellipse;whiteSpace=wrap;html=1;" parent="1" vertex="1">
          <mxGeometry x="360" y="70" width="70" height="50" as="geometry" />
        </mxCell>
        <mxCell id="KTyzmpf07YUTBIpUTj2X-46" value="FechaNacimiento" style="ellipse;whiteSpace=wrap;html=1;" parent="1" vertex="1">
          <mxGeometry x="620" y="40" width="130" height="50" as="geometry" />
        </mxCell>
        <mxCell id="KTyzmpf07YUTBIpUTj2X-47" value="DNI" style="ellipse;whiteSpace=wrap;html=1;" parent="1" vertex="1">
          <mxGeometry x="450" y="40" width="70" height="50" as="geometry" />
        </mxCell>
        <mxCell id="KTyzmpf07YUTBIpUTj2X-48" value="Nombre" style="ellipse;whiteSpace=wrap;html=1;" parent="1" vertex="1">
          <mxGeometry x="537" y="20" width="70" height="50" as="geometry" />
        </mxCell>
        <mxCell id="KTyzmpf07YUTBIpUTj2X-49" value="Ciudad" style="ellipse;whiteSpace=wrap;html=1;" parent="1" vertex="1">
          <mxGeometry x="753.5" y="60" width="70" height="50" as="geometry" />
        </mxCell>
        <mxCell id="KTyzmpf07YUTBIpUTj2X-50" value="Trabaja" style="rhombus;whiteSpace=wrap;html=1;" parent="1" vertex="1">
          <mxGeometry x="404" y="405" width="83" height="50" as="geometry" />
        </mxCell>
        <mxCell id="KTyzmpf07YUTBIpUTj2X-51" value="Compra" style="rhombus;whiteSpace=wrap;html=1;" parent="1" vertex="1">
          <mxGeometry x="623.5" y="270" width="83" height="50" as="geometry" />
        </mxCell>
        <mxCell id="KTyzmpf07YUTBIpUTj2X-53" value="Vende" style="rhombus;whiteSpace=wrap;html=1;" parent="1" vertex="1">
          <mxGeometry x="625" y="572" width="83" height="50" as="geometry" />
        </mxCell>
        <mxCell id="KTyzmpf07YUTBIpUTj2X-54" value="Fabrica" style="rhombus;whiteSpace=wrap;html=1;" parent="1" vertex="1">
          <mxGeometry x="825.5" y="742" width="83" height="50" as="geometry" />
        </mxCell>
        <mxCell id="KTyzmpf07YUTBIpUTj2X-55" value="Usa" style="shape=rhombus;double=1;perimeter=rhombusPerimeter;whiteSpace=wrap;html=1;align=center;" parent="1" vertex="1">
          <mxGeometry x="850" y="130" width="120" height="60" as="geometry" />
        </mxCell>
        <mxCell id="KTyzmpf07YUTBIpUTj2X-56" value="TARJETA" style="shape=ext;margin=3;double=1;whiteSpace=wrap;html=1;align=center;" parent="1" vertex="1">
          <mxGeometry x="1100" y="140" width="100" height="40" as="geometry" />
        </mxCell>
        <mxCell id="KTyzmpf07YUTBIpUTj2X-57" value="" style="endArrow=none;html=1;rounded=0;exitX=1;exitY=0.5;exitDx=0;exitDy=0;entryX=0;entryY=0.5;entryDx=0;entryDy=0;" parent="1" source="zRIx5lJEsnqqh7HefP3U-2" target="KTyzmpf07YUTBIpUTj2X-50" edge="1">
          <mxGeometry width="50" height="50" relative="1" as="geometry">
            <mxPoint x="790" y="590" as="sourcePoint" />
            <mxPoint x="840" y="540" as="targetPoint" />
          </mxGeometry>
        </mxCell>
        <mxCell id="KTyzmpf07YUTBIpUTj2X-58" value="" style="endArrow=none;html=1;rounded=0;exitX=1;exitY=0.5;exitDx=0;exitDy=0;entryX=0;entryY=0.5;entryDx=0;entryDy=0;" parent="1" target="zRIx5lJEsnqqh7HefP3U-1" edge="1">
          <mxGeometry width="50" height="50" relative="1" as="geometry">
            <mxPoint x="487" y="429.5" as="sourcePoint" />
            <mxPoint x="591" y="429.5" as="targetPoint" />
          </mxGeometry>
        </mxCell>
        <mxCell id="KTyzmpf07YUTBIpUTj2X-59" value="" style="endArrow=none;html=1;rounded=0;exitX=0.5;exitY=1;exitDx=0;exitDy=0;entryX=0;entryY=0.5;entryDx=0;entryDy=0;" parent="1" target="zRIx5lJEsnqqh7HefP3U-2" edge="1">
          <mxGeometry width="50" height="50" relative="1" as="geometry">
            <mxPoint x="130" y="445" as="sourcePoint" />
            <mxPoint x="245" y="470" as="targetPoint" />
          </mxGeometry>
        </mxCell>
        <mxCell id="KTyzmpf07YUTBIpUTj2X-60" value="" style="endArrow=none;html=1;rounded=0;exitX=0.5;exitY=1;exitDx=0;exitDy=0;entryX=0;entryY=0.5;entryDx=0;entryDy=0;" parent="1" target="zRIx5lJEsnqqh7HefP3U-2" edge="1">
          <mxGeometry width="50" height="50" relative="1" as="geometry">
            <mxPoint x="150" y="470" as="sourcePoint" />
            <mxPoint x="265" y="495" as="targetPoint" />
          </mxGeometry>
        </mxCell>
        <mxCell id="KTyzmpf07YUTBIpUTj2X-61" value="" style="endArrow=none;html=1;rounded=0;exitX=0.5;exitY=1;exitDx=0;exitDy=0;entryX=0.5;entryY=0;entryDx=0;entryDy=0;" parent="1" target="zRIx5lJEsnqqh7HefP3U-6" edge="1">
          <mxGeometry width="50" height="50" relative="1" as="geometry">
            <mxPoint x="430" y="90" as="sourcePoint" />
            <mxPoint x="495" y="260" as="targetPoint" />
          </mxGeometry>
        </mxCell>
        <mxCell id="KTyzmpf07YUTBIpUTj2X-62" value="" style="endArrow=none;html=1;rounded=0;exitX=0.617;exitY=0.972;exitDx=0;exitDy=0;exitPerimeter=0;entryX=0.5;entryY=0;entryDx=0;entryDy=0;" parent="1" source="KTyzmpf07YUTBIpUTj2X-47" target="zRIx5lJEsnqqh7HefP3U-6" edge="1">
          <mxGeometry width="50" height="50" relative="1" as="geometry">
            <mxPoint x="530" y="70" as="sourcePoint" />
            <mxPoint x="595" y="240" as="targetPoint" />
          </mxGeometry>
        </mxCell>
        <mxCell id="KTyzmpf07YUTBIpUTj2X-63" value="" style="endArrow=none;html=1;rounded=0;exitX=0.5;exitY=1;exitDx=0;exitDy=0;entryX=0.5;entryY=0;entryDx=0;entryDy=0;" parent="1" source="KTyzmpf07YUTBIpUTj2X-48" target="zRIx5lJEsnqqh7HefP3U-6" edge="1">
          <mxGeometry width="50" height="50" relative="1" as="geometry">
            <mxPoint x="610" y="80" as="sourcePoint" />
            <mxPoint x="675" y="250" as="targetPoint" />
          </mxGeometry>
        </mxCell>
        <mxCell id="KTyzmpf07YUTBIpUTj2X-64" value="" style="endArrow=none;html=1;rounded=0;exitX=0.5;exitY=1;exitDx=0;exitDy=0;entryX=0.5;entryY=0;entryDx=0;entryDy=0;" parent="1" source="KTyzmpf07YUTBIpUTj2X-46" target="zRIx5lJEsnqqh7HefP3U-6" edge="1">
          <mxGeometry width="50" height="50" relative="1" as="geometry">
            <mxPoint x="700" y="110" as="sourcePoint" />
            <mxPoint x="765" y="280" as="targetPoint" />
          </mxGeometry>
        </mxCell>
        <mxCell id="KTyzmpf07YUTBIpUTj2X-67" value="" style="endArrow=none;html=1;rounded=0;exitX=0.5;exitY=1;exitDx=0;exitDy=0;entryX=0.5;entryY=0;entryDx=0;entryDy=0;" parent="1" source="KTyzmpf07YUTBIpUTj2X-49" target="zRIx5lJEsnqqh7HefP3U-6" edge="1">
          <mxGeometry width="50" height="50" relative="1" as="geometry">
            <mxPoint x="610" y="100" as="sourcePoint" />
            <mxPoint x="703" y="160" as="targetPoint" />
          </mxGeometry>
        </mxCell>
        <mxCell id="KTyzmpf07YUTBIpUTj2X-68" value="" style="endArrow=none;html=1;rounded=0;exitX=0.5;exitY=1;exitDx=0;exitDy=0;entryX=0.5;entryY=0;entryDx=0;entryDy=0;" parent="1" target="KTyzmpf07YUTBIpUTj2X-56" edge="1">
          <mxGeometry width="50" height="50" relative="1" as="geometry">
            <mxPoint x="1025" y="90" as="sourcePoint" />
            <mxPoint x="1113" y="190" as="targetPoint" />
          </mxGeometry>
        </mxCell>
        <mxCell id="KTyzmpf07YUTBIpUTj2X-69" value="" style="endArrow=none;html=1;rounded=0;exitX=0.5;exitY=1;exitDx=0;exitDy=0;entryX=0.5;entryY=0;entryDx=0;entryDy=0;" parent="1" target="KTyzmpf07YUTBIpUTj2X-56" edge="1">
          <mxGeometry width="50" height="50" relative="1" as="geometry">
            <mxPoint x="1115" y="90" as="sourcePoint" />
            <mxPoint x="1233" y="170" as="targetPoint" />
          </mxGeometry>
        </mxCell>
        <mxCell id="KTyzmpf07YUTBIpUTj2X-70" value="" style="endArrow=none;html=1;rounded=0;exitX=0.5;exitY=1;exitDx=0;exitDy=0;entryX=0.5;entryY=0;entryDx=0;entryDy=0;" parent="1" source="KTyzmpf07YUTBIpUTj2X-25" target="KTyzmpf07YUTBIpUTj2X-56" edge="1">
          <mxGeometry width="50" height="50" relative="1" as="geometry">
            <mxPoint x="1240" y="120" as="sourcePoint" />
            <mxPoint x="1333" y="180" as="targetPoint" />
          </mxGeometry>
        </mxCell>
        <mxCell id="KTyzmpf07YUTBIpUTj2X-71" value="" style="endArrow=none;html=1;rounded=0;exitX=0.5;exitY=1;exitDx=0;exitDy=0;entryX=0.5;entryY=0;entryDx=0;entryDy=0;" parent="1" source="KTyzmpf07YUTBIpUTj2X-29" target="KTyzmpf07YUTBIpUTj2X-56" edge="1">
          <mxGeometry width="50" height="50" relative="1" as="geometry">
            <mxPoint x="1280" y="160" as="sourcePoint" />
            <mxPoint x="1373" y="220" as="targetPoint" />
          </mxGeometry>
        </mxCell>
        <mxCell id="KTyzmpf07YUTBIpUTj2X-72" value="" style="endArrow=none;html=1;rounded=0;exitX=1;exitY=0.5;exitDx=0;exitDy=0;entryX=0;entryY=0.5;entryDx=0;entryDy=0;" parent="1" source="KTyzmpf07YUTBIpUTj2X-55" target="KTyzmpf07YUTBIpUTj2X-56" edge="1">
          <mxGeometry width="50" height="50" relative="1" as="geometry">
            <mxPoint x="1110" y="380" as="sourcePoint" />
            <mxPoint x="1203" y="440" as="targetPoint" />
          </mxGeometry>
        </mxCell>
        <mxCell id="KTyzmpf07YUTBIpUTj2X-73" value="" style="endArrow=none;html=1;rounded=0;entryX=0;entryY=0.5;entryDx=0;entryDy=0;exitX=1;exitY=0.5;exitDx=0;exitDy=0;" parent="1" source="zRIx5lJEsnqqh7HefP3U-6" target="KTyzmpf07YUTBIpUTj2X-55" edge="1">
          <mxGeometry width="50" height="50" relative="1" as="geometry">
            <mxPoint x="730" y="160" as="sourcePoint" />
            <mxPoint x="1160" y="290" as="targetPoint" />
          </mxGeometry>
        </mxCell>
        <mxCell id="KTyzmpf07YUTBIpUTj2X-74" value="" style="endArrow=none;html=1;rounded=0;exitX=1;exitY=0.5;exitDx=0;exitDy=0;entryX=0;entryY=0.5;entryDx=0;entryDy=0;" parent="1" source="zRIx5lJEsnqqh7HefP3U-3" target="KTyzmpf07YUTBIpUTj2X-54" edge="1">
          <mxGeometry width="50" height="50" relative="1" as="geometry">
            <mxPoint x="842" y="547" as="sourcePoint" />
            <mxPoint x="972" y="547" as="targetPoint" />
          </mxGeometry>
        </mxCell>
        <mxCell id="KTyzmpf07YUTBIpUTj2X-75" value="" style="endArrow=none;html=1;rounded=0;exitX=1;exitY=0.5;exitDx=0;exitDy=0;entryX=0;entryY=0.5;entryDx=0;entryDy=0;" parent="1" source="KTyzmpf07YUTBIpUTj2X-54" target="zRIx5lJEsnqqh7HefP3U-4" edge="1">
          <mxGeometry width="50" height="50" relative="1" as="geometry">
            <mxPoint x="962" y="637" as="sourcePoint" />
            <mxPoint x="1092" y="637" as="targetPoint" />
          </mxGeometry>
        </mxCell>
        <mxCell id="KTyzmpf07YUTBIpUTj2X-76" value="" style="endArrow=none;html=1;rounded=0;exitX=0.5;exitY=1;exitDx=0;exitDy=0;entryX=0.5;entryY=0;entryDx=0;entryDy=0;" parent="1" source="zRIx5lJEsnqqh7HefP3U-6" target="KTyzmpf07YUTBIpUTj2X-51" edge="1">
          <mxGeometry width="50" height="50" relative="1" as="geometry">
            <mxPoint x="1100" y="370" as="sourcePoint" />
            <mxPoint x="665" y="260" as="targetPoint" />
          </mxGeometry>
        </mxCell>
        <mxCell id="KTyzmpf07YUTBIpUTj2X-77" value="" style="endArrow=none;html=1;rounded=0;exitX=0.5;exitY=1;exitDx=0;exitDy=0;entryX=0.5;entryY=0;entryDx=0;entryDy=0;" parent="1" edge="1">
          <mxGeometry width="50" height="50" relative="1" as="geometry">
            <mxPoint x="664.52" y="320" as="sourcePoint" />
            <mxPoint x="664.52" y="400" as="targetPoint" />
          </mxGeometry>
        </mxCell>
        <mxCell id="KTyzmpf07YUTBIpUTj2X-78" value="" style="endArrow=none;html=1;rounded=0;exitX=0.5;exitY=1;exitDx=0;exitDy=0;entryX=0.5;entryY=0;entryDx=0;entryDy=0;" parent="1" source="zRIx5lJEsnqqh7HefP3U-1" target="KTyzmpf07YUTBIpUTj2X-53" edge="1">
          <mxGeometry width="50" height="50" relative="1" as="geometry">
            <mxPoint x="680" y="560" as="sourcePoint" />
            <mxPoint x="680" y="640" as="targetPoint" />
          </mxGeometry>
        </mxCell>
        <mxCell id="KTyzmpf07YUTBIpUTj2X-79" value="" style="endArrow=none;html=1;rounded=0;exitX=0.5;exitY=1;exitDx=0;exitDy=0;" parent="1" source="KTyzmpf07YUTBIpUTj2X-53" target="zRIx5lJEsnqqh7HefP3U-3" edge="1">
          <mxGeometry width="50" height="50" relative="1" as="geometry">
            <mxPoint x="640" y="650" as="sourcePoint" />
            <mxPoint x="640" y="730" as="targetPoint" />
          </mxGeometry>
        </mxCell>
        <mxCell id="KTyzmpf07YUTBIpUTj2X-80" value="" style="endArrow=none;html=1;rounded=0;exitX=0.5;exitY=1;exitDx=0;exitDy=0;entryX=0.5;entryY=0;entryDx=0;entryDy=0;" parent="1" source="zRIx5lJEsnqqh7HefP3U-3" target="KTyzmpf07YUTBIpUTj2X-30" edge="1">
          <mxGeometry width="50" height="50" relative="1" as="geometry">
            <mxPoint x="732" y="797" as="sourcePoint" />
            <mxPoint x="732" y="877" as="targetPoint" />
          </mxGeometry>
        </mxCell>
        <mxCell id="KTyzmpf07YUTBIpUTj2X-81" value="" style="endArrow=none;html=1;rounded=0;exitX=0.5;exitY=1;exitDx=0;exitDy=0;entryX=0.5;entryY=0;entryDx=0;entryDy=0;" parent="1" source="zRIx5lJEsnqqh7HefP3U-3" target="KTyzmpf07YUTBIpUTj2X-31" edge="1">
          <mxGeometry width="50" height="50" relative="1" as="geometry">
            <mxPoint x="602" y="827" as="sourcePoint" />
            <mxPoint x="602" y="907" as="targetPoint" />
          </mxGeometry>
        </mxCell>
        <mxCell id="KTyzmpf07YUTBIpUTj2X-82" value="" style="endArrow=none;html=1;rounded=0;exitX=0.5;exitY=1;exitDx=0;exitDy=0;entryX=0.5;entryY=0;entryDx=0;entryDy=0;" parent="1" source="zRIx5lJEsnqqh7HefP3U-3" target="KTyzmpf07YUTBIpUTj2X-32" edge="1">
          <mxGeometry width="50" height="50" relative="1" as="geometry">
            <mxPoint x="692" y="827" as="sourcePoint" />
            <mxPoint x="692" y="907" as="targetPoint" />
          </mxGeometry>
        </mxCell>
        <mxCell id="KTyzmpf07YUTBIpUTj2X-83" value="" style="endArrow=none;html=1;rounded=0;exitX=0.5;exitY=1;exitDx=0;exitDy=0;entryX=0.5;entryY=0;entryDx=0;entryDy=0;" parent="1" source="zRIx5lJEsnqqh7HefP3U-3" target="KTyzmpf07YUTBIpUTj2X-33" edge="1">
          <mxGeometry width="50" height="50" relative="1" as="geometry">
            <mxPoint x="762" y="827" as="sourcePoint" />
            <mxPoint x="762" y="907" as="targetPoint" />
          </mxGeometry>
        </mxCell>
        <mxCell id="KTyzmpf07YUTBIpUTj2X-84" value="" style="endArrow=none;html=1;rounded=0;exitX=0;exitY=0.5;exitDx=0;exitDy=0;entryX=1;entryY=0.5;entryDx=0;entryDy=0;" parent="1" source="KTyzmpf07YUTBIpUTj2X-34" target="zRIx5lJEsnqqh7HefP3U-4" edge="1">
          <mxGeometry width="50" height="50" relative="1" as="geometry">
            <mxPoint x="1112" y="647" as="sourcePoint" />
            <mxPoint x="1112" y="727" as="targetPoint" />
          </mxGeometry>
        </mxCell>
        <mxCell id="KTyzmpf07YUTBIpUTj2X-85" value="" style="endArrow=none;html=1;rounded=0;exitX=0;exitY=0.5;exitDx=0;exitDy=0;entryX=1;entryY=0.5;entryDx=0;entryDy=0;" parent="1" source="KTyzmpf07YUTBIpUTj2X-37" target="zRIx5lJEsnqqh7HefP3U-4" edge="1">
          <mxGeometry width="50" height="50" relative="1" as="geometry">
            <mxPoint x="1205" y="727" as="sourcePoint" />
            <mxPoint x="1162" y="902" as="targetPoint" />
          </mxGeometry>
        </mxCell>
        <mxCell id="KTyzmpf07YUTBIpUTj2X-86" value="" style="endArrow=none;html=1;rounded=0;exitX=0;exitY=0.5;exitDx=0;exitDy=0;" parent="1" source="KTyzmpf07YUTBIpUTj2X-36" edge="1">
          <mxGeometry width="50" height="50" relative="1" as="geometry">
            <mxPoint x="1205" y="777" as="sourcePoint" />
            <mxPoint x="1122" y="767" as="targetPoint" />
          </mxGeometry>
        </mxCell>
        <mxCell id="KTyzmpf07YUTBIpUTj2X-87" value="" style="endArrow=none;html=1;rounded=0;exitX=0;exitY=0.5;exitDx=0;exitDy=0;entryX=1;entryY=0.5;entryDx=0;entryDy=0;" parent="1" source="KTyzmpf07YUTBIpUTj2X-35" target="zRIx5lJEsnqqh7HefP3U-4" edge="1">
          <mxGeometry width="50" height="50" relative="1" as="geometry">
            <mxPoint x="1225" y="787" as="sourcePoint" />
            <mxPoint x="1182" y="962" as="targetPoint" />
          </mxGeometry>
        </mxCell>
        <mxCell id="KTyzmpf07YUTBIpUTj2X-88" value="" style="endArrow=none;html=1;rounded=0;exitX=0;exitY=0.5;exitDx=0;exitDy=0;entryX=1;entryY=0.5;entryDx=0;entryDy=0;" parent="1" source="KTyzmpf07YUTBIpUTj2X-38" target="zRIx5lJEsnqqh7HefP3U-4" edge="1">
          <mxGeometry width="50" height="50" relative="1" as="geometry">
            <mxPoint x="1135" y="877" as="sourcePoint" />
            <mxPoint x="1092" y="1052" as="targetPoint" />
          </mxGeometry>
        </mxCell>
        <mxCell id="KTyzmpf07YUTBIpUTj2X-89" value="" style="endArrow=none;html=1;rounded=0;exitX=0;exitY=0.5;exitDx=0;exitDy=0;entryX=1;entryY=0.5;entryDx=0;entryDy=0;" parent="1" source="KTyzmpf07YUTBIpUTj2X-40" target="zRIx5lJEsnqqh7HefP3U-1" edge="1">
          <mxGeometry width="50" height="50" relative="1" as="geometry">
            <mxPoint x="763" y="380" as="sourcePoint" />
            <mxPoint x="720" y="555" as="targetPoint" />
          </mxGeometry>
        </mxCell>
        <mxCell id="KTyzmpf07YUTBIpUTj2X-92" value="" style="endArrow=none;html=1;rounded=0;exitX=0;exitY=0.5;exitDx=0;exitDy=0;entryX=1;entryY=0.5;entryDx=0;entryDy=0;" parent="1" source="KTyzmpf07YUTBIpUTj2X-43" target="zRIx5lJEsnqqh7HefP3U-1" edge="1">
          <mxGeometry width="50" height="50" relative="1" as="geometry">
            <mxPoint x="823" y="420" as="sourcePoint" />
            <mxPoint x="730" y="430" as="targetPoint" />
          </mxGeometry>
        </mxCell>
        <mxCell id="KTyzmpf07YUTBIpUTj2X-93" value="" style="endArrow=none;html=1;rounded=0;exitX=1;exitY=0.5;exitDx=0;exitDy=0;entryX=0;entryY=0.5;entryDx=0;entryDy=0;" parent="1" source="zRIx5lJEsnqqh7HefP3U-1" target="KTyzmpf07YUTBIpUTj2X-44" edge="1">
          <mxGeometry width="50" height="50" relative="1" as="geometry">
            <mxPoint x="803" y="520" as="sourcePoint" />
            <mxPoint x="760" y="695" as="targetPoint" />
          </mxGeometry>
        </mxCell>
        <mxCell id="KTyzmpf07YUTBIpUTj2X-95" value="&lt;div&gt;&lt;span style=&quot;border-bottom: 1px dotted;&quot;&gt;NomTarj&lt;/span&gt;&lt;/div&gt;" style="ellipse;whiteSpace=wrap;html=1;align=center;" parent="1" vertex="1">
          <mxGeometry x="960" y="50" width="100" height="40" as="geometry" />
        </mxCell>
        <mxCell id="KTyzmpf07YUTBIpUTj2X-96" value="&lt;span style=&quot;border-bottom: 1px dotted;&quot;&gt;NumTarj&lt;/span&gt;" style="ellipse;whiteSpace=wrap;html=1;align=center;" parent="1" vertex="1">
          <mxGeometry x="1063" y="50" width="100" height="40" as="geometry" />
        </mxCell>
        <mxCell id="KTyzmpf07YUTBIpUTj2X-97" value="Horario" style="ellipse;whiteSpace=wrap;html=1;align=center;" parent="1" vertex="1">
          <mxGeometry x="395.5" y="315" width="100" height="40" as="geometry" />
        </mxCell>
        <mxCell id="KTyzmpf07YUTBIpUTj2X-98" value="" style="endArrow=none;html=1;rounded=0;exitX=0.5;exitY=1;exitDx=0;exitDy=0;entryX=0.5;entryY=0;entryDx=0;entryDy=0;" parent="1" source="KTyzmpf07YUTBIpUTj2X-97" target="KTyzmpf07YUTBIpUTj2X-50" edge="1">
          <mxGeometry relative="1" as="geometry">
            <mxPoint x="430" y="470" as="sourcePoint" />
            <mxPoint x="590" y="470" as="targetPoint" />
          </mxGeometry>
        </mxCell>
        <mxCell id="KTyzmpf07YUTBIpUTj2X-99" value="Precio" style="ellipse;whiteSpace=wrap;html=1;align=center;" parent="1" vertex="1">
          <mxGeometry x="755" y="571" width="100" height="40" as="geometry" />
        </mxCell>
        <mxCell id="KTyzmpf07YUTBIpUTj2X-100" value="" style="endArrow=none;html=1;rounded=0;exitX=0;exitY=0.5;exitDx=0;exitDy=0;entryX=1;entryY=0.5;entryDx=0;entryDy=0;" parent="1" source="KTyzmpf07YUTBIpUTj2X-99" target="KTyzmpf07YUTBIpUTj2X-53" edge="1">
          <mxGeometry width="50" height="50" relative="1" as="geometry">
            <mxPoint x="763" y="720" as="sourcePoint" />
            <mxPoint x="720" y="895" as="targetPoint" />
          </mxGeometry>
        </mxCell>
        <mxCell id="KTyzmpf07YUTBIpUTj2X-101" value="Descuento" style="ellipse;whiteSpace=wrap;html=1;align=center;" parent="1" vertex="1">
          <mxGeometry x="770" y="250" width="100" height="40" as="geometry" />
        </mxCell>
        <mxCell id="KTyzmpf07YUTBIpUTj2X-102" value="" style="endArrow=none;html=1;rounded=0;exitX=0;exitY=0.5;exitDx=0;exitDy=0;entryX=1;entryY=0.5;entryDx=0;entryDy=0;" parent="1" source="KTyzmpf07YUTBIpUTj2X-101" target="KTyzmpf07YUTBIpUTj2X-51" edge="1">
          <mxGeometry width="50" height="50" relative="1" as="geometry">
            <mxPoint x="693" y="220" as="sourcePoint" />
            <mxPoint x="650" y="395" as="targetPoint" />
          </mxGeometry>
        </mxCell>
        <mxCell id="KTyzmpf07YUTBIpUTj2X-103" value="1" style="text;html=1;align=center;verticalAlign=middle;resizable=0;points=[];autosize=1;strokeColor=none;fillColor=none;" parent="1" vertex="1">
          <mxGeometry x="727" y="130" width="30" height="30" as="geometry" />
        </mxCell>
        <mxCell id="KTyzmpf07YUTBIpUTj2X-104" value="N" style="text;html=1;align=center;verticalAlign=middle;resizable=0;points=[];autosize=1;strokeColor=none;fillColor=none;" parent="1" vertex="1">
          <mxGeometry x="1070" y="130" width="30" height="30" as="geometry" />
        </mxCell>
        <mxCell id="KTyzmpf07YUTBIpUTj2X-105" value="1" style="text;html=1;align=center;verticalAlign=middle;resizable=0;points=[];autosize=1;strokeColor=none;fillColor=none;" parent="1" vertex="1">
          <mxGeometry x="657" y="370" width="30" height="30" as="geometry" />
        </mxCell>
        <mxCell id="KTyzmpf07YUTBIpUTj2X-106" value="N" style="text;html=1;align=center;verticalAlign=middle;resizable=0;points=[];autosize=1;strokeColor=none;fillColor=none;" parent="1" vertex="1">
          <mxGeometry x="660" y="190" width="30" height="30" as="geometry" />
        </mxCell>
        <mxCell id="KTyzmpf07YUTBIpUTj2X-107" value="N" style="text;html=1;align=center;verticalAlign=middle;resizable=0;points=[];autosize=1;strokeColor=none;fillColor=none;" parent="1" vertex="1">
          <mxGeometry x="299" y="403" width="30" height="30" as="geometry" />
        </mxCell>
        <mxCell id="KTyzmpf07YUTBIpUTj2X-108" value="M" style="text;html=1;align=center;verticalAlign=middle;resizable=0;points=[];autosize=1;strokeColor=none;fillColor=none;" parent="1" vertex="1">
          <mxGeometry x="579" y="404" width="28" height="26" as="geometry" />
        </mxCell>
        <mxCell id="KTyzmpf07YUTBIpUTj2X-109" value="N" style="text;html=1;align=center;verticalAlign=middle;resizable=0;points=[];autosize=1;strokeColor=none;fillColor=none;" parent="1" vertex="1">
          <mxGeometry x="668" y="461" width="30" height="30" as="geometry" />
        </mxCell>
        <mxCell id="KTyzmpf07YUTBIpUTj2X-110" value="M" style="text;html=1;align=center;verticalAlign=middle;resizable=0;points=[];autosize=1;strokeColor=none;fillColor=none;" parent="1" vertex="1">
          <mxGeometry x="667" y="707" width="28" height="26" as="geometry" />
        </mxCell>
        <mxCell id="KTyzmpf07YUTBIpUTj2X-112" value="1" style="text;html=1;align=center;verticalAlign=middle;resizable=0;points=[];autosize=1;strokeColor=none;fillColor=none;" parent="1" vertex="1">
          <mxGeometry x="727" y="766" width="30" height="30" as="geometry" />
        </mxCell>
        <mxCell id="KTyzmpf07YUTBIpUTj2X-113" value="1" style="text;html=1;align=center;verticalAlign=middle;resizable=0;points=[];autosize=1;strokeColor=none;fillColor=none;" parent="1" vertex="1">
          <mxGeometry x="970" y="768" width="30" height="30" as="geometry" />
        </mxCell>
      </root>
    </mxGraphModel>
  </diagram>
</mxfile>
